<?xml version="1.0" encoding="UTF-8"?>
<svg version="1.1" xmlns="http://www.w3.org/2000/svg" width="614" height="406">
<path d="M0 0 C2.23828125 1.99609375 2.23828125 1.99609375 4.3125 4.4375 C5.00988281 5.24058594 5.70726562 6.04367188 6.42578125 6.87109375 C8 9 8 9 8 11 C8.99 11.33 9.98 11.66 11 12 C11 12.66 11 13.32 11 14 C11.99 14.33 12.98 14.66 14 15 C16.04296875 17.21484375 16.04296875 17.21484375 18.1875 19.9375 C18.90292969 20.83339844 19.61835938 21.72929687 20.35546875 22.65234375 C22 25 22 25 22 27 C22.66 27 23.32 27 24 27 C25.5078125 28.4609375 25.5078125 28.4609375 27.125 30.375 C27.66382813 31.00148437 28.20265625 31.62796875 28.7578125 32.2734375 C30 34 30 34 30 36 C31.485 36.495 31.485 36.495 33 37 C34.58520814 38.73496934 36.0982273 40.53681912 37.5625 42.375 C38.34753906 43.35210937 39.13257813 44.32921875 39.94140625 45.3359375 C43.71921667 50.22486863 44.34990248 53.39430267 44.484375 59.4296875 C44.5084845 60.257034 44.53259399 61.08438049 44.55743408 61.9367981 C44.60571443 63.6867444 44.64910966 65.4368313 44.68798828 67.18701172 C44.74961683 69.85839077 44.83273831 72.52850077 44.91796875 75.19921875 C44.96223976 76.90100829 45.00524986 78.60283119 45.046875 80.3046875 C45.08575836 81.49866653 45.08575836 81.49866653 45.12542725 82.71676636 C45.20213945 86.91537977 45.09761719 90.22556699 43 94 C40.23091908 95.38454046 37.96834636 95.14254396 34.86962891 95.16113281 C33.58134186 95.17074036 32.29305481 95.1803479 30.96572876 95.19024658 C29.55267513 95.19509432 28.13961946 95.19937321 26.7265625 95.203125 C25.28168739 95.20887647 23.83681231 95.2146342 22.39193726 95.22039795 C19.36057174 95.23090837 16.32923274 95.23675072 13.29785156 95.24023438 C9.41499546 95.24571849 5.53249014 95.26974418 1.64974403 95.29820633 C-1.33569358 95.31683776 -4.32104679 95.32203857 -7.30653763 95.32357025 C-8.73786969 95.32659632 -10.16920029 95.33462337 -11.60047531 95.34775543 C-13.60385954 95.36482408 -15.60738829 95.36108968 -17.61083984 95.35644531 C-18.75064301 95.36009094 -19.89044617 95.36373657 -21.06478882 95.36749268 C-24.33087262 94.95857427 -25.72098859 94.35071194 -28 92 C-28.39472148 89.41116493 -28.53817391 87.25115329 -28.49609375 84.6640625 C-28.49754898 83.94769623 -28.49900421 83.23132996 -28.50050354 82.49325562 C-28.49884472 80.97853529 -28.48728499 79.46379809 -28.46655273 77.94921875 C-28.43768611 75.63988909 -28.44592421 73.33286863 -28.45898438 71.0234375 C-28.45274375 69.54946808 -28.44435027 68.07550588 -28.43359375 66.6015625 C-28.43652939 65.91494537 -28.43946503 65.22832825 -28.44248962 64.52090454 C-28.24052531 54.16131358 -19.48232879 47.41747195 -12.5703125 40.60546875 C-3.06862725 31.72988614 -3.06862725 31.72988614 4 21 C3.34 21 2.68 21 2 21 C0.2856382 19.04072937 -1.38405168 17.04119788 -3 15 C-4.12434915 16.12434915 -5.2483451 17.24905263 -6.37109375 18.375 C-7.56655446 19.5675939 -8.76794126 20.75425518 -9.97265625 21.9375 C-13.56358004 25.48143974 -16.88429194 29.02478626 -20 33 C-21.66525004 34.66808209 -23.33212866 36.33453888 -25 38 C-26.69931976 39.82238298 -28.38676119 41.65591031 -30.0625 43.5 C-30.89910156 44.4178125 -31.73570312 45.335625 -32.59765625 46.28125 C-33.39042969 47.1784375 -34.18320312 48.075625 -35 49 C-35.69915527 49.7017334 -36.39831055 50.4034668 -37.11865234 51.12646484 C-39.69017049 55.05415348 -39.55114358 58.10012278 -39.50390625 62.6953125 C-39.51332748 63.52457245 -39.52274872 64.3538324 -39.53245544 65.20822144 C-39.56105202 67.84740127 -39.56418478 70.48567787 -39.5625 73.125 C-39.56610536 75.7713306 -39.57559007 78.41700831 -39.60325623 81.0632019 C-39.62007313 82.7069367 -39.62289775 84.3508873 -39.61024475 85.99465942 C-39.66118212 91.50342212 -39.66118212 91.50342212 -41.36694336 94.00341797 C-43.731471 95.4463843 -45.28543653 95.40718452 -48 95 C-49.96487264 93.46922178 -50.88168549 92.56081593 -51.40113831 90.09858704 C-51.4125737 89.38325302 -51.42400909 88.66791901 -51.43579102 87.9309082 C-51.45493057 87.11608475 -51.47407013 86.30126129 -51.49378967 85.46174622 C-51.49712814 84.58362778 -51.50046661 83.70550934 -51.50390625 82.80078125 C-51.51888405 81.43725777 -51.51888405 81.43725777 -51.53416443 80.04618835 C-51.54935738 78.12043814 -51.55638986 76.19460892 -51.5559082 74.26879883 C-51.56243878 71.33995802 -51.61681822 68.41456412 -51.67382812 65.48632812 C-51.68263677 63.61199071 -51.68858658 61.73763725 -51.69140625 59.86328125 C-51.7129628 58.99528397 -51.73451935 58.12728668 -51.75672913 57.23298645 C-51.69097096 51.31550514 -50.19559026 48.00258628 -46.48350525 43.40324402 C-45 42 -45 42 -43 42 C-42.72687988 41.40396973 -42.45375977 40.80793945 -42.17236328 40.19384766 C-41.03614671 38.06764147 -39.9052745 36.62585197 -38.2421875 34.8984375 C-37.70271484 34.3305249 -37.16324219 33.7626123 -36.60742188 33.17749023 C-36.03572266 32.58266846 -35.46402344 31.98784668 -34.875 31.375 C-30.19842279 26.43610651 -25.80865913 21.40027921 -21.625 16.03125 C-19.59253668 13.49067085 -17.32836218 11.27015313 -15 9 C-12.90545244 6.64515915 -10.83253475 4.27313765 -8.76953125 1.890625 C-5.77188182 -1.31216158 -4.1007917 -1.30231937 0 0 Z M11 31 C9.9411979 32.13921264 8.91799975 33.31156059 7.91015625 34.49609375 C3.59190887 39.50191102 -0.93521137 44.29088422 -5.48242188 49.08789062 C-6.10826172 49.75111328 -6.73410156 50.41433594 -7.37890625 51.09765625 C-7.9313501 51.68039307 -8.48379395 52.26312988 -9.05297852 52.86352539 C-20.13633684 65.02533965 -17 61.64310031 -17 83 C-0.5 83 16 83 33 83 C33.0825 78.50375 33.165 74.0075 33.25 69.375 C33.28641602 67.96782715 33.32283203 66.5606543 33.36035156 65.11083984 C33.43945126 56.22743352 32.65684341 52.7482645 26.5 46.4375 C25.675 45.633125 24.85 44.82875 24 44 C22.66666667 42.33333333 21.33333333 40.66666667 20 39 C18.35353315 37.31337542 16.68816933 35.64488294 15 34 C14.4225 33.401875 13.845 32.80375 13.25 32.1875 C12.16652331 30.88520842 12.16652331 30.88520842 11 31 Z " fill="#0EF8E1" transform="translate(313,125)"/>
<path d="M0 0 C1.95670667 2.93506001 2.63549452 5.27298452 3.4296875 8.6640625 C4.06825067 11.27954727 4.80043499 13.85535739 5.5625 16.4375 C5.81128906 17.28183594 6.06007812 18.12617188 6.31640625 18.99609375 C6.82657356 20.97355381 6.82657356 20.97355381 8 22 C8.79359736 19.6464689 9.58491783 17.29221117 10.375 14.9375 C10.70757812 13.95233398 10.70757812 13.95233398 11.046875 12.94726562 C12.48306019 8.65983043 13.78775047 4.3561677 15 0 C18.465 -0.495 18.465 -0.495 22 -1 C24.75033962 4.7757132 26.42804431 10.73231509 28.1328125 16.890625 C28.70487173 18.94179232 29.32661013 20.9798304 30 23 C31.76787309 20.34819037 32.46298552 18.81927622 33.25390625 15.83984375 C33.57584961 14.6497168 33.57584961 14.6497168 33.90429688 13.43554688 C34.12150391 12.61119141 34.33871094 11.78683594 34.5625 10.9375 C34.99951081 9.30030206 35.43823296 7.66355968 35.87890625 6.02734375 C36.16616577 4.94054321 36.16616577 4.94054321 36.45922852 3.83178711 C37 2 37 2 38 0 C40.32156597 -0.40729228 42.6568787 -0.74438677 45 -1 C46.61149653 3.0277779 45.32631621 6.52078008 44.19921875 10.50390625 C44.00278275 11.22360092 43.80634674 11.94329559 43.60395813 12.68479919 C43.18729968 14.2031727 42.76589799 15.7202515 42.34008789 17.23608398 C41.68967904 19.55473193 41.05561933 21.87739019 40.42382812 24.20117188 C40.01658522 25.67734857 39.60841318 27.15326932 39.19921875 28.62890625 C39.00954025 29.32270889 38.81986176 30.01651154 38.62443542 30.7313385 C37.72436407 33.91167304 36.85236043 36.22145935 35 39 C33.0546875 39.29296875 33.0546875 39.29296875 30.875 39.1875 C29.59625 39.125625 28.3175 39.06375 27 39 C23.5460968 31.89010353 21.20279077 24.58088102 19 17 C18.74307373 17.83978394 18.74307373 17.83978394 18.48095703 18.6965332 C17.700683 21.23677038 16.91293136 23.77462806 16.125 26.3125 C15.85558594 27.19357422 15.58617187 28.07464844 15.30859375 28.98242188 C15.04433594 29.82998047 14.78007812 30.67753906 14.5078125 31.55078125 C14.14647217 32.72120972 14.14647217 32.72120972 13.77783203 33.9152832 C13 36 13 36 11 39 C9.0546875 39.29296875 9.0546875 39.29296875 6.875 39.1875 C5.59625 39.125625 4.3175 39.06375 3 39 C0.94570441 34.40826014 -0.70306219 29.94031303 -2.04296875 25.078125 C-2.39423828 23.80582031 -2.74550781 22.53351563 -3.10742188 21.22265625 C-3.2845874 20.57055176 -3.46175293 19.91844727 -3.64428711 19.24658203 C-4.1904092 17.23930722 -4.74602194 15.23482913 -5.30273438 13.23046875 C-8 3.39220489 -8 3.39220489 -8 0 C-5.06791253 -1.46604374 -3.11702298 -0.77925574 0 0 Z " fill="#E1E1E1" transform="translate(129,240)"/>
<path d="M0 0 C0.77988281 -0.04898438 1.55976563 -0.09796875 2.36328125 -0.1484375 C6.77637609 0.84543596 8.44381761 4.99522329 10.7578125 8.6015625 C11.43585938 9.72304687 12.11390625 10.84453125 12.8125 12 C14.7292909 15.16089669 16.63690811 18.29911216 18.6875 21.375 C19.0175 14.775 19.3475 8.175 19.6875 1.375 C23.00725682 0.5450608 25.33642584 0.19386086 28.6875 0.375 C30.6784963 2.3659963 29.87519591 6.29691274 29.890625 9.0234375 C29.89632507 9.7917691 29.90202515 10.56010071 29.90789795 11.35171509 C29.9173618 12.98088193 29.92388741 14.61006803 29.92773438 16.23925781 C29.93743295 18.73276203 29.96843911 21.22543971 30 23.71875 C30.00653051 25.29947426 30.01178079 26.88020443 30.015625 28.4609375 C30.0279718 29.20789886 30.0403186 29.95486023 30.05303955 30.72445679 C30.04032162 33.67932663 30.02971928 35.83938094 28.41308594 38.36962891 C25.82860308 39.87541561 23.47205009 39.50149053 20.609375 39 C15.50759942 37.34088599 13.38631108 31.20147093 11.03125 26.75390625 C9.40202611 23.86961162 7.52501722 21.13127583 5.6875 18.375 C5.3575 24.975 5.0275 31.575 4.6875 38.375 C1.3875 38.375 -1.9125 38.375 -5.3125 38.375 C-5.33714928 33.12394558 -5.35533568 27.87292455 -5.36743164 22.62182617 C-5.37247218 20.83405979 -5.37930454 19.04629755 -5.38793945 17.25854492 C-5.4000173 14.69448832 -5.40573094 12.13048603 -5.41015625 9.56640625 C-5.41531754 8.7622377 -5.42047882 7.95806915 -5.42579651 7.12953186 C-5.42599215 5.21098285 -5.37451983 3.29254632 -5.3125 1.375 C-3.74331508 -0.19418492 -2.17164841 0.09241057 0 0 Z " fill="#E6E5E5" transform="translate(262.3125,239.625)"/>
<path d="M0 0 C4.25675005 3.11469516 7.56407389 6.93666703 9.5625 11.875 C10.44873704 20.0352865 9.86096597 26.47704538 4.875 33.125 C0.09722326 36.74061483 -5.3159292 38.49627683 -11.359375 38.22265625 C-16.77788803 37.31617569 -21.68300596 35.12634628 -25.375 31 C-28.97560507 25.54453777 -30.27120743 20.40570822 -29.4375 13.875 C-27.99911261 9.76532176 -26.40685785 6.10256288 -23.4375 2.875 C-22.7775 2.875 -22.1175 2.875 -21.4375 2.875 C-21.4375 2.215 -21.4375 1.555 -21.4375 0.875 C-14.74419301 -2.0998031 -6.91666477 -2.26363574 0 0 Z M-18.4375 10.875 C-19.79429339 14.94538018 -19.95259093 18.61990098 -19.4375 22.875 C-17.90340641 25.94318718 -16.86221519 27.39910348 -13.56640625 28.5 C-9.99178284 29.14870292 -7.93676082 29.09206992 -4.5625 27.625 C-2.02399226 25.53446421 -0.59734015 23.86769143 -0.06640625 20.5703125 C0.0506789 16.03842851 0.08457251 13.62739861 -2.5625 9.8125 C-8.92486619 5.52481844 -12.54078775 6.71261488 -18.4375 10.875 Z " fill="#E7E7E7" transform="translate(364.4375,241.125)"/>
<path d="M0 0 C2.64 0.66 5.28 1.32 8 2 C8 3.32 8 4.64 8 6 C8.99 6 9.98 6 11 6 C11 6.66 11 7.32 11 8 C11.99 8.33 12.98 8.66 14 9 C15.47811213 12.97365849 15.16201488 17.22798194 15.16796875 21.4140625 C15.17296135 22.63033829 15.17296135 22.63033829 15.17805481 23.8711853 C15.18310732 25.58078444 15.18546365 27.2903934 15.18530273 29 C15.18749796 31.62255878 15.20569486 34.24470262 15.22460938 36.8671875 C15.22754184 38.52864439 15.22952762 40.19010329 15.23046875 41.8515625 C15.23765427 42.63802155 15.24483978 43.42448059 15.25224304 44.23477173 C15.22883602 49.77116398 15.22883602 49.77116398 13 52 C10.29856873 52.24723816 10.29856873 52.24723816 6.82202148 52.24291992 C5.52405136 52.24599655 4.22608124 52.24907318 2.88877869 52.25224304 C1.46621525 52.24534581 0.04365356 52.23807888 -1.37890625 52.23046875 C-2.83096781 52.22927707 -4.28303014 52.22882376 -5.73509216 52.2290802 C-8.7790916 52.22751504 -11.82297349 52.21922222 -14.86694336 52.20581055 C-18.77687776 52.18880552 -22.68668307 52.18499661 -26.59665012 52.18575573 C-29.59483583 52.18548438 -32.59299309 52.18000904 -35.59116936 52.17275429 C-37.03333254 52.16956318 -38.47549896 52.16759919 -39.91766548 52.16686058 C-41.92892739 52.16470256 -43.94017737 52.15517349 -45.95141602 52.14526367 C-47.67111351 52.13954597 -47.67111351 52.13954597 -49.42555237 52.13371277 C-52 52 -52 52 -53 51 C-53.12568214 48.51415964 -53.18862757 46.05758328 -53.203125 43.5703125 C-53.20882507 42.82417694 -53.21452515 42.07804138 -53.22039795 41.30929565 C-53.22986151 39.72720768 -53.2363873 38.14509988 -53.24023438 36.56298828 C-53.2499323 34.14190218 -53.28093823 31.7216676 -53.3125 29.30078125 C-53.3190306 27.76563006 -53.32428085 26.23047277 -53.328125 24.6953125 C-53.3404718 23.97022491 -53.3528186 23.24513733 -53.36553955 22.49807739 C-53.35241501 19.53629109 -53.33393476 17.49391001 -51.64746094 14.99951172 C-50 14 -50 14 -47.3125 14.3125 C-46.1678125 14.6528125 -46.1678125 14.6528125 -45 15 C-44.67 16.32 -44.34 17.64 -44 19 C-44.99 19.33 -45.98 19.66 -47 20 C-46.86186975 24.14612814 -46.71321141 28.29181162 -46.5625 32.4375 C-46.52318359 33.62150391 -46.48386719 34.80550781 -46.44335938 36.02539062 C-46.40146484 37.15009766 -46.35957031 38.27480469 -46.31640625 39.43359375 C-46.27974854 40.47572021 -46.24309082 41.51784668 -46.20532227 42.59155273 C-46.26484659 44.9499826 -46.26484659 44.9499826 -45 46 C-43.41466455 46.09853953 -41.82496659 46.12798689 -40.23657227 46.12939453 C-39.22204483 46.13254669 -38.2075174 46.13569885 -37.1622467 46.13894653 C-36.05811935 46.1369223 -34.953992 46.13489807 -33.81640625 46.1328125 C-32.69056625 46.13376923 -31.56472626 46.13472595 -30.4047699 46.13571167 C-28.01813705 46.13639373 -25.63150236 46.13453764 -23.24487305 46.13037109 C-19.58182623 46.12502819 -15.91890232 46.13031268 -12.25585938 46.13671875 C-9.94270806 46.13605788 -7.62955682 46.13477652 -5.31640625 46.1328125 C-4.21430313 46.13483673 -3.11220001 46.13686096 -1.97669983 46.13894653 C-0.95902023 46.13579437 0.05865936 46.13264221 1.10717773 46.12939453 C2.45500587 46.12820114 2.45500587 46.12820114 3.83006287 46.12698364 C6.04801298 46.14024258 6.04801298 46.14024258 8 45 C8.33 34.44 8.66 23.88 9 13 C7.68 12.67 6.36 12.34 5 12 C2.85802506 9.09303401 2 7.64478912 2 4 C1.34 4 0.68 4 0 4 C0 2.68 0 1.36 0 0 Z " fill="#0BF9E2" transform="translate(340,165)"/>
<path d="M0 0 C1.32 0.33 2.64 0.66 4 1 C4.75 4.25 4.75 4.25 5 8 C3.1875 10.4375 3.1875 10.4375 1 12 C0.34 12 -0.32 12 -1 12 C-1 12.66 -1 13.32 -1 14 C-1.99 14.33 -2.98 14.66 -4 15 C-5.01754868 16.8653245 -5.01754868 16.8653245 -5.6875 19.0625 C-5.93886719 19.79597656 -6.19023437 20.52945313 -6.44921875 21.28515625 C-6.63097656 21.85105469 -6.81273437 22.41695312 -7 23 C-6.01 23 -5.02 23 -4 23 C-4 22.34 -4 21.68 -4 21 C-2.75 19.375 -2.75 19.375 -1 18 C0.32 18 1.64 18 3 18 C3 16.35 3 14.7 3 13 C4.32 12.67 5.64 12.34 7 12 C7 11.01 7 10.02 7 9 C9.9375 9.75 9.9375 9.75 13 11 C13.875 13.125 13.875 13.125 14 15 C15.32 15 16.64 15 18 15 C18.28875 15.639375 18.5775 16.27875 18.875 16.9375 C19.82823451 19.15206079 19.82823451 19.15206079 22 20 C22.1546875 21.4540625 22.1546875 21.4540625 22.3125 22.9375 C22.6528125 24.4534375 22.6528125 24.4534375 23 26 C25.39068734 27.10636395 25.39068734 27.10636395 28 28 C29.0409066 29.64142963 30.04504326 31.30712215 31 33 C31.99 33.33 32.98 33.66 34 34 C34.07406517 38.5206339 34.12856045 43.040916 34.16479492 47.56201172 C34.17989711 49.10048574 34.20038046 50.63891661 34.22631836 52.17724609 C34.26264074 54.38650141 34.27971119 56.59518848 34.29296875 58.8046875 C34.30845261 59.49432587 34.32393646 60.18396423 34.33988953 60.89450073 C34.34057617 62.83544922 34.34057617 62.83544922 34 66 C30.73229392 68.17847072 29.79306293 68.25204976 26.00952148 68.25878906 C24.99514511 68.26509338 23.98076874 68.27139771 22.93565369 68.27789307 C21.84184891 68.2738446 20.74804413 68.26979614 19.62109375 68.265625 C17.9365786 68.26849518 17.9365786 68.26849518 16.21803284 68.27142334 C13.84335099 68.27278487 11.4686617 68.26909069 9.09399414 68.26074219 C5.44856147 68.2500325 1.80362052 68.26064397 -1.84179688 68.2734375 C-4.14583443 68.2721161 -6.44987167 68.2695541 -8.75390625 68.265625 C-10.39764977 68.27169769 -10.39764977 68.27169769 -12.07460022 68.27789307 C-13.59143654 68.26843658 -13.59143654 68.26843658 -15.13891602 68.25878906 C-16.0314357 68.25719788 -16.92395538 68.25560669 -17.84352112 68.25396729 C-20 68 -20 68 -22 66 C-22.22705078 63.47802734 -22.22705078 63.47802734 -22.1953125 60.3359375 C-22.18564453 58.65371094 -22.18564453 58.65371094 -22.17578125 56.9375 C-22.15902344 55.761875 -22.14226562 54.58625 -22.125 53.375 C-22.11597656 52.19164062 -22.10695313 51.00828125 -22.09765625 49.7890625 C-22.07402812 46.85917477 -22.04108514 43.9296866 -22 41 C-21.01 40.505 -21.01 40.505 -20 40 C-20.33 38.68 -20.66 37.36 -21 36 C-22.98 36 -24.96 36 -27 36 C-25.48031735 32.13171688 -23.20197271 30.56157817 -20 28 C-18.38287687 26.25114493 -16.85165425 24.43955666 -15.30859375 22.625 C-13.40078206 20.45571158 -11.45799968 18.34740666 -9.47265625 16.25 C-8.84157959 15.58266846 -8.21050293 14.91533691 -7.56030273 14.2277832 C-6.28096438 12.87904716 -4.99797745 11.5337616 -3.71118164 10.19213867 C-3.11813232 9.5654126 -2.52508301 8.93868652 -1.9140625 8.29296875 C-1.3773291 7.7311792 -0.8405957 7.16938965 -0.28759766 6.59057617 C1.2237589 4.91392214 1.2237589 4.91392214 2 2 C1.34 2 0.68 2 0 2 C0 1.34 0 0.68 0 0 Z M9 12 C7.9411979 13.13921264 6.91799975 14.31156059 5.91015625 15.49609375 C1.59190887 20.50191102 -2.93521137 25.29088422 -7.48242188 30.08789062 C-8.10826172 30.75111328 -8.73410156 31.41433594 -9.37890625 32.09765625 C-9.9313501 32.68039307 -10.48379395 33.26312988 -11.05297852 33.86352539 C-22.13633684 46.02533965 -19 42.64310031 -19 64 C-2.5 64 14 64 31 64 C31.0825 59.50375 31.165 55.0075 31.25 50.375 C31.28641602 48.96782715 31.32283203 47.5606543 31.36035156 46.11083984 C31.43945126 37.22743352 30.65684341 33.7482645 24.5 27.4375 C23.675 26.633125 22.85 25.82875 22 25 C20.66666667 23.33333333 19.33333333 21.66666667 18 20 C16.35353315 18.31337542 14.68816933 16.64488294 13 15 C12.4225 14.401875 11.845 13.80375 11.25 13.1875 C10.16652331 11.88520842 10.16652331 11.88520842 9 12 Z " fill="#0EF9E2" transform="translate(315,144)"/>
<path d="M0 0 C3.19782408 -0.66621335 5.82232876 -0.83236381 9 0 C12.192564 2.98811408 14.60882798 6.35134515 17 10 C17.721875 9.278125 18.44375 8.55625 19.1875 7.8125 C20.115625 6.884375 21.04375 5.95625 22 5 C22.7425 4.05125 23.485 3.1025 24.25 2.125 C27.40298719 -0.31139919 28.02671048 -0.23314328 31.8125 0.1875 C33.21318736 0.43199192 34.61135566 0.69443774 36 1 C34.19225726 6.51311598 30.6310381 10.03997026 26.80078125 14.28125 C24.79459583 16.79460152 24.79459583 16.79460152 24.91796875 19.4296875 C26.39547593 22.9394338 28.60341784 25.70915837 31 28.625 C35.88207547 34.64622642 35.88207547 34.64622642 37 38 C32.02850493 39.21255977 28.67734423 39.17162411 24 37 C21.66091545 34.18281685 19.7910468 31.18845693 18 28 C15.3808286 30.47759457 13.24760691 32.50478618 11.625 35.75 C10 38 10 38 6.5625 38.875 C3.66780418 38.97656827 1.68514374 38.96665175 -1 38 C-0.4739075 34.21213403 0.38103911 31.82847776 3 29 C3.66 29 4.32 29 5 29 C5.4021875 27.88625 5.4021875 27.88625 5.8125 26.75 C7 24 7 24 8.6875 21.9375 C10.21356616 20.13360848 10.21356616 20.13360848 9.8046875 18.16796875 C8.79045484 15.43544871 7.2930201 13.61661822 5.4375 11.375 C2 7.21126761 2 7.21126761 2 5 C1.01 4.67 0.02 4.34 -1 4 C-0.67 2.68 -0.34 1.36 0 0 Z " fill="#E2E2E2" transform="translate(297,240)"/>
<path d="M0 0 C2.67553711 0.06860352 2.67553711 0.06860352 5.35107422 0.13720703 C6.47280029 0.16596924 6.47280029 0.16596924 7.6171875 0.1953125 C10.5462998 6.49739997 13.00382169 12.86887491 15.2421875 19.4453125 C15.83753542 21.18003317 16.43385954 22.91441917 17.03125 24.6484375 C17.30485352 25.44701172 17.57845703 26.24558594 17.86035156 27.06835938 C18.45937637 28.75181231 19.13130894 30.40930248 19.828125 32.0546875 C20.6171875 34.1953125 20.6171875 34.1953125 20.6171875 38.1953125 C17.6471875 38.1953125 14.6771875 38.1953125 11.6171875 38.1953125 C10.6271875 34.7303125 10.6271875 34.7303125 9.6171875 31.1953125 C5.19319557 30.72894732 1.0202497 30.47035311 -3.3828125 31.1953125 C-5.95370642 33.51216552 -7.20799478 35.96636565 -8.3828125 39.1953125 C-12.3428125 38.7003125 -12.3428125 38.7003125 -16.3828125 38.1953125 C-14.87207769 30.22103612 -12.2280496 22.8464663 -9.3828125 15.2578125 C-8.93164062 14.02740234 -8.48046875 12.79699219 -8.015625 11.52929688 C-3.84345126 0.31503699 -3.84345126 0.31503699 0 0 Z M1.6171875 12.1953125 C1.11103452 13.46370776 0.61249651 14.73514352 0.1171875 16.0078125 C-0.16125 16.71550781 -0.4396875 17.42320312 -0.7265625 18.15234375 C-1.5357287 20.31372466 -1.5357287 20.31372466 -1.3828125 23.1953125 C0.9271875 23.1953125 3.2371875 23.1953125 5.6171875 23.1953125 C5.33477109 21.73515959 5.04092136 20.27721457 4.7421875 18.8203125 C4.49855469 17.60214844 4.49855469 17.60214844 4.25 16.359375 C3.75059818 14.00857327 3.75059818 14.00857327 1.6171875 12.1953125 Z " fill="#E5E4E4" transform="translate(428.3828125,239.8046875)"/>
<path d="M0 0 C2.35940047 2.73994893 2.69452677 4.68639258 2.9375 8.25 C0.2975 8.91 -2.3425 9.57 -5.0625 10.25 C-5.43375 9.59 -5.805 8.93 -6.1875 8.25 C-7.97144778 5.89696955 -7.97144778 5.89696955 -11.25 6 C-12.6421875 6.12375 -12.6421875 6.12375 -14.0625 6.25 C-14.0625 7.57 -14.0625 8.89 -14.0625 10.25 C-13.24265625 10.50394531 -12.4228125 10.75789062 -11.578125 11.01953125 C-9.96164062 11.53580078 -9.96164062 11.53580078 -8.3125 12.0625 C-6.71148437 12.56716797 -6.71148437 12.56716797 -5.078125 13.08203125 C-1.56166608 14.44397583 1.08890789 15.61672648 2.87109375 19.046875 C4.23462992 24.3318989 3.79992631 27.38387527 0.9375 32.25 C-3.2578232 36.3099902 -8.13114366 36.59456448 -13.74609375 36.5390625 C-18.27346391 35.97409557 -21.41689613 33.56648309 -24.9375 30.75 C-26.30633087 28.92489217 -26.77133474 27.50653078 -27.0625 25.25 C-26.7325 24.59 -26.4025 23.93 -26.0625 23.25 C-23.99609375 22.8359375 -23.99609375 22.8359375 -21.5 22.625 C-20.67371094 22.55023438 -19.84742188 22.47546875 -18.99609375 22.3984375 C-18.03896484 22.32496094 -18.03896484 22.32496094 -17.0625 22.25 C-16.7325 23.57 -16.4025 24.89 -16.0625 26.25 C-13.0925 26.58 -10.1225 26.91 -7.0625 27.25 C-7.06460811 24.81288565 -7.06460811 24.81288565 -8.0625 22.25 C-10.90944895 20.68710989 -10.90944895 20.68710989 -14.375 19.6875 C-18.94938784 18.20709901 -22.02282765 17.06406506 -25.0625 13.25 C-26.17508463 9.24469535 -26.29517866 6.96172297 -25 3 C-18.99304886 -5.52599517 -8.20984082 -4.69133761 0 0 Z " fill="#E1E1E1" transform="translate(494.0625,242.75)"/>
<path d="M0 0 C1.47049805 -0.0309375 1.47049805 -0.0309375 2.97070312 -0.0625 C3.90720703 -0.06765625 4.84371094 -0.0728125 5.80859375 -0.078125 C6.67154053 -0.0874707 7.5344873 -0.09681641 8.42358398 -0.10644531 C9.48234741 0.06999512 9.48234741 0.06999512 10.5625 0.25 C12.5625 3.25 12.5625 3.25 12.1875 5.9375 C11.878125 7.0821875 11.878125 7.0821875 11.5625 8.25 C8.36234144 9.31671952 6.67705706 9.19845472 3.375 8.8125 C2.47394531 8.71066406 1.57289063 8.60882813 0.64453125 8.50390625 C-0.04253906 8.42011719 -0.72960937 8.33632812 -1.4375 8.25 C-1.4375 10.56 -1.4375 12.87 -1.4375 15.25 C2.5225 15.25 6.4825 15.25 10.5625 15.25 C10.5625 17.89 10.5625 20.53 10.5625 23.25 C8.03774538 24.51237731 6.25049534 24.34856404 3.4375 24.3125 C2.52742187 24.30347656 1.61734375 24.29445313 0.6796875 24.28515625 C-0.36832031 24.26775391 -0.36832031 24.26775391 -1.4375 24.25 C-1.4375 25.9 -1.4375 27.55 -1.4375 29.25 C2.8525 29.58 7.1425 29.91 11.5625 30.25 C11.8925 32.56 12.2225 34.87 12.5625 37.25 C8.21530592 39.39802531 4.19208209 39.55196265 -0.5625 39.5 C-1.63564453 39.51160156 -1.63564453 39.51160156 -2.73046875 39.5234375 C-6.50225618 39.50933736 -8.22631279 39.39079147 -11.4375 37.25 C-11.71676386 34.49542543 -11.80955304 31.9686054 -11.765625 29.21484375 C-11.76375183 28.4209877 -11.76187866 27.62713165 -11.75994873 26.80921936 C-11.75322268 25.13050133 -11.73929715 23.45179912 -11.71875 21.77319336 C-11.68758281 19.19435172 -11.67777944 16.61612069 -11.671875 14.03710938 C-11.66270581 12.40884666 -11.6523303 10.7805902 -11.640625 9.15234375 C-11.63637512 8.37632309 -11.63212524 7.60030243 -11.62774658 6.80076599 C-11.51130336 -1.85551807 -7.58487195 0.03973738 0 0 Z " fill="#EDECEC" transform="translate(239.4375,239.75)"/>
<path d="M0 0 C1.08081055 2.02539062 1.08081055 2.02539062 1.88671875 4.65625 C2.18513672 5.59597656 2.48355469 6.53570312 2.79101562 7.50390625 C3.08685547 8.49261719 3.38269531 9.48132813 3.6875 10.5 C4.29341698 12.44858837 4.90137993 14.39654212 5.51171875 16.34375 C5.77428467 17.21193359 6.03685059 18.08011719 6.30737305 18.97460938 C6.82400149 20.97075627 6.82400149 20.97075627 8 22 C8.39832031 20.75863281 8.79664063 19.51726562 9.20703125 18.23828125 C9.74186462 16.59624897 10.27703885 14.95432768 10.8125 13.3125 C11.20405273 12.08756836 11.20405273 12.08756836 11.60351562 10.83789062 C14.44771766 2.1648301 14.44771766 2.1648301 17 -1 C19.79965679 -1.66913403 22.08800141 -1.23868841 25 -1 C26.17377953 2.40279943 25.84096698 4.21356791 24.5234375 7.52734375 C24.01562744 8.83106934 24.01562744 8.83106934 23.49755859 10.16113281 C23.12711426 11.07733398 22.75666992 11.99353516 22.375 12.9375 C21.62437997 14.82657667 20.8743793 16.71589955 20.125 18.60546875 C19.75761719 19.52505371 19.39023437 20.44463867 19.01171875 21.39208984 C18.13206378 23.65957885 17.32413492 25.92915289 16.5625 28.23828125 C16.170625 29.39714844 15.77875 30.55601562 15.375 31.75 C14.89160156 33.25820313 14.89160156 33.25820313 14.3984375 34.796875 C13 37 13 37 9.98828125 37.8359375 C5.26836016 38.09507042 5.26836016 38.09507042 3 37 C-0.22822515 32.5058042 -1.75078874 27.3778452 -3.5 22.1875 C-4.09289617 20.45153107 -4.6866363 18.71585013 -5.28125 16.98046875 C-5.56613281 16.14177246 -5.85101563 15.30307617 -6.14453125 14.43896484 C-6.95090322 12.13997626 -7.82436973 9.87914956 -8.71875 7.61328125 C-10 4 -10 4 -10 0 C-3.23682219 -1.38337728 -3.23682219 -1.38337728 0 0 Z " fill="#E3E2E2" transform="translate(386,241)"/>
<path d="M0 0 C0.74765625 -0.02900391 1.4953125 -0.05800781 2.265625 -0.08789062 C7.96260795 -0.1524035 11.18063507 1.07129517 15.875 4.3125 C19.08718795 7.93916381 19.39835372 11.40853491 19.2265625 16.09375 C18.66783837 19.61992007 17.23869816 21.69326691 14.875 24.3125 C9.55714242 26.99874655 4.72393083 26.45343809 -1.125 26.3125 C-1.125 30.9325 -1.125 35.5525 -1.125 40.3125 C-3.435 40.3125 -5.745 40.3125 -8.125 40.3125 C-9.96776509 38.46973491 -9.25374411 35.88286241 -9.26394653 33.43115234 C-9.2619223 32.60824707 -9.25989807 31.7853418 -9.2578125 30.9375 C-9.25876923 30.09783691 -9.25972595 29.25817383 -9.26071167 28.39306641 C-9.26139348 26.61425705 -9.25953917 24.83544523 -9.25537109 23.05664062 C-9.25002283 20.32416224 -9.25531605 17.59184824 -9.26171875 14.859375 C-9.26105797 13.1354163 -9.25977681 11.41145771 -9.2578125 9.6875 C-9.25983673 8.86459473 -9.26186096 8.04168945 -9.26394653 7.19384766 C-9.23089119 -0.74957244 -7.26500594 0.0911163 0 0 Z M-1.125 8.3125 C-1.125 11.6125 -1.125 14.9125 -1.125 18.3125 C0.133125 18.498125 1.39125 18.68375 2.6875 18.875 C3.39519531 18.97941406 4.10289062 19.08382813 4.83203125 19.19140625 C7.0775342 19.45154799 7.0775342 19.45154799 9.875 18.3125 C10.64022801 14.95791845 10.64022801 14.95791845 10.875 11.3125 C9.76153129 9.49037252 9.76153129 9.49037252 7.875 8.3125 C5.59169899 7.95103543 5.59169899 7.95103543 3.1875 8.125 C1.764375 8.186875 0.34125 8.24875 -1.125 8.3125 Z " fill="#E7E7E7" transform="translate(189.125,238.6875)"/>
<path d="M0 0 C0.66 0.33 1.32 0.66 2 1 C2 1.66 2 2.32 2 3 C2.99 3.33 3.98 3.66 5 4 C6.58520814 5.73496934 8.0982273 7.53681912 9.5625 9.375 C10.34753906 10.35210937 11.13257813 11.32921875 11.94140625 12.3359375 C15.71921667 17.22486863 16.34990248 20.39430267 16.484375 26.4296875 C16.5084845 27.257034 16.53259399 28.08438049 16.55743408 28.9367981 C16.60571443 30.6867444 16.64910966 32.4368313 16.68798828 34.18701172 C16.74961683 36.85839077 16.83273831 39.52850077 16.91796875 42.19921875 C16.96223976 43.90100829 17.00524986 45.60283119 17.046875 47.3046875 C17.07279724 48.10067352 17.09871948 48.89665955 17.12542725 49.71676636 C17.20213945 53.91537977 17.09761719 57.22556699 15 61 C12.23091908 62.38454046 9.96834636 62.14254396 6.86962891 62.16113281 C4.93719833 62.17554413 4.93719833 62.17554413 2.96572876 62.19024658 C1.55267513 62.19509432 0.13961946 62.19937321 -1.2734375 62.203125 C-2.71831261 62.20887647 -4.16318769 62.2146342 -5.60806274 62.22039795 C-8.63942826 62.23090837 -11.67076726 62.23675072 -14.70214844 62.24023438 C-18.58500454 62.24571849 -22.46750986 62.26974418 -26.35025597 62.29820633 C-29.33569358 62.31683776 -32.32104679 62.32203857 -35.30653763 62.32357025 C-36.73786969 62.32659632 -38.16920029 62.33462337 -39.60047531 62.34775543 C-41.60385954 62.36482408 -43.60738829 62.36108968 -45.61083984 62.35644531 C-46.75064301 62.36009094 -47.89044617 62.36373657 -49.06478882 62.36749268 C-52.3309167 61.95856875 -53.72216437 61.352313 -56 59 C-56.38216702 56.39915181 -56.5147321 54.22599423 -56.4609375 51.62890625 C-56.46002106 50.9101683 -56.45910461 50.19143036 -56.4581604 49.45091248 C-56.45212333 47.93197013 -56.43637376 46.41303975 -56.41162109 44.89428711 C-56.37518467 42.57425854 -56.37060128 40.2558313 -56.37109375 37.93554688 C-56.36125925 36.45831959 -56.3496008 34.98110309 -56.3359375 33.50390625 C-56.33371185 32.81212784 -56.33148621 32.12034943 -56.32919312 31.40760803 C-56.25811882 27.78307134 -55.97392847 25.08690908 -54 22 C-52.46702703 25.06594594 -52.87868545 28.27111853 -52.90234375 31.6328125 C-52.9037587 32.38464813 -52.90517365 33.13648376 -52.90663147 33.91110229 C-52.91223535 36.3157751 -52.92478843 38.72035527 -52.9375 41.125 C-52.9425145 42.75390491 -52.9470775 44.38281127 -52.95117188 46.01171875 C-52.96220603 50.00784827 -52.97947321 54.00390842 -53 58 C-44.54232666 58.02312659 -36.08466644 58.0409167 -27.62696934 58.05181217 C-23.70011342 58.05704031 -19.77327906 58.06413669 -15.84643555 58.07543945 C-12.05985743 58.0862708 -8.2733001 58.09227736 -4.48670769 58.09487724 C-3.03895681 58.09673105 -1.59120712 58.10035081 -0.14346504 58.10573006 C1.87757135 58.11294367 3.89862848 58.11340808 5.91967773 58.11352539 C7.07217514 58.115746 8.22467255 58.11796661 9.41209412 58.12025452 C11.93013147 58.29437595 11.93013147 58.29437595 13 57 C13.10107439 54.30779772 13.13969767 51.64181553 13.1328125 48.94921875 C13.13424759 47.73369072 13.13424759 47.73369072 13.13571167 46.49360657 C13.13639368 44.77446414 13.13453792 43.05531915 13.13037109 41.33618164 C13.12504378 38.70908777 13.1303046 36.08216649 13.13671875 33.45507812 C13.13605757 31.78645796 13.13477557 30.11783789 13.1328125 28.44921875 C13.13584885 27.27089729 13.13584885 27.27089729 13.13894653 26.06877136 C13.12567785 20.94983208 13.12567785 20.94983208 12 16 C11.01 15.505 11.01 15.505 10 15 C10 14.34 10 13.68 10 13 C9.01 13 8.02 13 7 13 C5.92474806 10.34771188 4.90543849 7.71631546 4 5 C3.01 4.67 2.02 4.34 1 4 C0.3125 1.9375 0.3125 1.9375 0 0 Z " fill="#33B1A3" transform="translate(341,158)"/>
<path d="M0 0 C4.52723595 1.34593501 5.72648517 2.96967825 8 7 C8.99 7.33 9.98 7.66 11 8 C11.07406517 12.5206339 11.12856045 17.040916 11.16479492 21.56201172 C11.17989711 23.10048574 11.20038046 24.63891661 11.22631836 26.17724609 C11.26264074 28.38650141 11.27971119 30.59518848 11.29296875 32.8046875 C11.30845261 33.49432587 11.32393646 34.18396423 11.33988953 34.89450073 C11.34057617 36.83544922 11.34057617 36.83544922 11 40 C7.73229392 42.17847072 6.79306293 42.25204976 3.00952148 42.25878906 C1.99514511 42.26509338 0.98076874 42.27139771 -0.06434631 42.27789307 C-1.15815109 42.2738446 -2.25195587 42.26979614 -3.37890625 42.265625 C-5.0634214 42.26849518 -5.0634214 42.26849518 -6.78196716 42.27142334 C-9.15664901 42.27278487 -11.5313383 42.26909069 -13.90600586 42.26074219 C-17.55143853 42.2500325 -21.19637948 42.26064397 -24.84179688 42.2734375 C-27.14583443 42.2721161 -29.44987167 42.2695541 -31.75390625 42.265625 C-33.39764977 42.27169769 -33.39764977 42.27169769 -35.07460022 42.27789307 C-36.08582443 42.27158875 -37.09704865 42.26528442 -38.13891602 42.25878906 C-39.0314357 42.25719788 -39.92395538 42.25560669 -40.84352112 42.25396729 C-43 42 -43 42 -45 40 C-45.45756227 35.85143538 -45.32402177 31.67087925 -45.3125 27.5 C-45.32861328 26.33339844 -45.34472656 25.16679687 -45.36132812 23.96484375 C-45.36197266 22.85238281 -45.36261719 21.73992187 -45.36328125 20.59375 C-45.36626221 19.56958984 -45.36924316 18.54542969 -45.37231445 17.49023438 C-45.24945068 16.66845703 -45.12658691 15.84667969 -45 15 C-42 13 -42 13 -39 13 C-39.66 14.32 -40.32 15.64 -41 17 C-41.33 23.93 -41.66 30.86 -42 38 C-25.5 38 -9 38 8 38 C7.896875 33.4625 7.79375 28.925 7.6875 24.25 C7.66260498 22.82461914 7.63770996 21.39923828 7.61206055 19.93066406 C7.57894775 18.80370117 7.54583496 17.67673828 7.51171875 16.515625 C7.48553467 15.36352539 7.45935059 14.21142578 7.43237305 13.02441406 C6.96349213 9.74463041 6.11132609 8.47052891 4 6 C4 5.34 4 4.68 4 4 C3.01 3.67 2.02 3.34 1 3 C0.505 1.515 0.505 1.515 0 0 Z " fill="#26F0D7" transform="translate(338,170)"/>
<path d="M0 0 C1.175625 0.0825 2.35125 0.165 3.5625 0.25 C6.01448633 3.92797949 5.83509068 6.69480521 5.79296875 10.9453125 C5.79228142 12.06738602 5.79228142 12.06738602 5.7915802 13.21212769 C5.78856246 14.79068593 5.78069041 16.36924132 5.76831055 17.94775391 C5.75001639 20.37282773 5.74780117 22.79752053 5.74804688 25.22265625 C5.74313298 26.75521166 5.73730522 28.28776446 5.73046875 29.8203125 C5.72935593 30.54944855 5.7282431 31.27858459 5.72709656 32.02981567 C5.67856285 37.13393715 5.67856285 37.13393715 4.5625 38.25 C3.04321962 38.32179964 1.52082518 38.33392007 0 38.3125 C-0.82628906 38.30347656 -1.65257812 38.29445313 -2.50390625 38.28515625 C-3.14199219 38.27355469 -3.78007812 38.26195312 -4.4375 38.25 C-4.46214928 32.99894558 -4.48033568 27.74792455 -4.49243164 22.49682617 C-4.49747218 20.70905979 -4.50430454 18.92129755 -4.51293945 17.13354492 C-4.5250173 14.56948832 -4.53073094 12.00548603 -4.53515625 9.44140625 C-4.54031754 8.6372377 -4.54547882 7.83306915 -4.55079651 7.00453186 C-4.55099215 5.08598285 -4.49951983 3.16754632 -4.4375 1.25 C-3.4375 0.25 -3.4375 0.25 0 0 Z " fill="#EAEAEA" transform="translate(457.4375,239.75)"/>
<path d="M0 0 C0 13.53 0 27.06 0 41 C-1.65 41 -3.3 41 -5 41 C-6.61301773 37.77396455 -6.12053599 34.25289962 -6.09765625 30.7109375 C-6.0962413 29.89251373 -6.09482635 29.07408997 -6.09336853 28.23086548 C-6.0877629 25.61220675 -6.07520948 22.99363296 -6.0625 20.375 C-6.05748572 18.60156373 -6.05292269 16.82812613 -6.04882812 15.0546875 C-6.03779164 10.70309218 -6.02052325 6.3515605 -6 2 C-1.125 0 -1.125 0 0 0 Z " fill="#0CF9E2" transform="translate(271,175)"/>
<path d="M0 0 C0.66 0.33 1.32 0.66 2 1 C2 1.66 2 2.32 2 3 C2.99 3.33 3.98 3.66 5 4 C6.58520814 5.73496934 8.0982273 7.53681912 9.5625 9.375 C10.74005859 10.84066406 10.74005859 10.84066406 11.94140625 12.3359375 C15.72714687 17.23513125 16.35014774 20.416844 16.484375 26.46484375 C16.5084845 27.29456192 16.53259399 28.12428009 16.55743408 28.97914124 C16.60570937 30.73328414 16.64910569 32.48756712 16.68798828 34.24194336 C16.74969634 36.92430055 16.83278844 39.60540688 16.91796875 42.28710938 C16.96223092 43.99215441 17.00524129 45.6972325 17.046875 47.40234375 C17.08575836 48.60406471 17.08575836 48.60406471 17.12542725 49.83006287 C17.20273243 54.0615569 16.94238233 56.11523535 15 60 C-7.44 60 -29.88 60 -53 60 C-53 59.67 -53 59.34 -53 59 C-52.18789566 58.98969254 -51.37579132 58.97938507 -50.53907776 58.96876526 C-42.90163512 58.87096021 -35.26427678 58.76847052 -27.62696934 58.66066074 C-23.70015386 58.60539585 -19.77333099 58.5519703 -15.84643555 58.50268555 C-12.05979158 58.45509439 -8.27324084 58.40275376 -4.48670769 58.34705925 C-3.03898362 58.32661182 -1.59123397 58.30790276 -0.14346504 58.29092598 C1.87764159 58.26693492 3.8986661 58.23629925 5.91967773 58.20532227 C7.07217514 58.18977798 8.22467255 58.1742337 9.41209412 58.15821838 C11.92970589 58.29117368 11.92970589 58.29117368 13 57 C13.10107439 54.30779772 13.13969767 51.64181553 13.1328125 48.94921875 C13.13424759 47.73369072 13.13424759 47.73369072 13.13571167 46.49360657 C13.13639368 44.77446414 13.13453792 43.05531915 13.13037109 41.33618164 C13.12504378 38.70908777 13.1303046 36.08216649 13.13671875 33.45507812 C13.13605757 31.78645796 13.13477557 30.11783789 13.1328125 28.44921875 C13.13584885 27.27089729 13.13584885 27.27089729 13.13894653 26.06877136 C13.12567785 20.94983208 13.12567785 20.94983208 12 16 C11.34 15.67 10.68 15.34 10 15 C10 14.34 10 13.68 10 13 C9.01 13 8.02 13 7 13 C5.92474806 10.34771188 4.90543849 7.71631546 4 5 C3.01 4.67 2.02 4.34 1 4 C0.3125 1.9375 0.3125 1.9375 0 0 Z " fill="#2EEBD4" transform="translate(341,158)"/>
<path d="M0 0 C0.33 0.66 0.66 1.32 1 2 C0.67 2.99 0.34 3.98 0 5 C-0.66 5 -1.32 5 -2 5 C-2.28875 5.598125 -2.5775 6.19625 -2.875 6.8125 C-4 9 -4 9 -6 12 C-6.66 12 -7.32 12 -8 12 C-10.69944992 15.99708023 -10.3496439 20.27957967 -10.4140625 24.921875 C-10.43342865 25.78186096 -10.4527948 26.64184692 -10.4727478 27.52789307 C-10.53241814 30.26849521 -10.5788786 33.00913964 -10.625 35.75 C-10.66319134 37.61069517 -10.70224375 39.47137288 -10.7421875 41.33203125 C-10.83810935 45.88787864 -10.92218668 50.44380879 -11 55 C-7.04 55.495 -7.04 55.495 -3 56 C-3 43.79 -3 31.58 -3 19 C-2.67 19 -2.34 19 -2 19 C-1.9258795 24.35682133 -1.87141224 29.71334462 -1.83520508 35.07055664 C-1.8201124 36.89320067 -1.79963605 38.71580836 -1.77368164 40.53833008 C-1.73731897 43.157155 -1.72027876 45.77550007 -1.70703125 48.39453125 C-1.69154739 49.21025101 -1.67606354 50.02597076 -1.66011047 50.8664093 C-1.65841103 56.5706187 -1.65841103 56.5706187 -3.36503601 58.71586609 C-5 60 -5 60 -7.5 60.375 C-10.47887301 59.92816905 -11.1595364 59.32359835 -13 57 C-13.40113831 55.09858704 -13.40113831 55.09858704 -13.43579102 52.9309082 C-13.45493057 52.11608475 -13.47407013 51.30126129 -13.49378967 50.46174622 C-13.49712814 49.58362778 -13.50046661 48.70550934 -13.50390625 47.80078125 C-13.51888405 46.43725777 -13.51888405 46.43725777 -13.53416443 45.04618835 C-13.54935738 43.12043814 -13.55638986 41.19460892 -13.5559082 39.26879883 C-13.56243878 36.33995802 -13.61681822 33.41456412 -13.67382812 30.48632812 C-13.68263677 28.61199071 -13.68858658 26.73763725 -13.69140625 24.86328125 C-13.7129628 23.99528397 -13.73451935 23.12728668 -13.75672913 22.23298645 C-13.69097096 16.31550514 -12.19559026 13.00258628 -8.48350525 8.40324402 C-7 7 -7 7 -5 7 C-4.731875 6.401875 -4.46375 5.80375 -4.1875 5.1875 C-3.01506533 3.02775192 -1.80630718 1.64209744 0 0 Z " fill="#31D3BE" transform="translate(275,160)"/>
<path d="M0 0 C2.23828125 1.99609375 2.23828125 1.99609375 4.3125 4.4375 C5.00988281 5.24058594 5.70726562 6.04367188 6.42578125 6.87109375 C8 9 8 9 8 11 C8.99 11.33 9.98 11.66 11 12 C11 12.66 11 13.32 11 14 C11.99 14.33 12.98 14.66 14 15 C15.38671875 16.62890625 15.38671875 16.62890625 16.6875 18.5625 C17.12449219 19.20316406 17.56148438 19.84382813 18.01171875 20.50390625 C18.33785156 20.99761719 18.66398437 21.49132812 19 22 C18.01 22.495 18.01 22.495 17 23 C17 22.34 17 21.68 17 21 C16.1028125 20.9071875 16.1028125 20.9071875 15.1875 20.8125 C12.09660471 19.66445318 11.4119656 17.89452948 10 15 C10 14.34 10 13.68 10 13 C9.01 13 8.02 13 7 13 C7 12.34 7 11.68 7 11 C5.68 10.67 4.36 10.34 3 10 C3 8.68 3 7.36 3 6 C2.01 6 1.02 6 0 6 C-0.66 5.01 -1.32 4.02 -2 3 C-6.51593681 3.26564334 -8.67147472 5.08969069 -11.65234375 8.23828125 C-13.03757799 10.04912369 -13.85458095 11.69749614 -14.6875 13.8125 C-15.120625 14.864375 -15.55375 15.91625 -16 17 C-16.99 17.33 -17.98 17.66 -19 18 C-21.22325647 20.56011351 -23.11879409 23.17819113 -25 26 C-25.66 26 -26.32 26 -27 26 C-27.309375 26.8353125 -27.309375 26.8353125 -27.625 27.6875 C-29.55000774 30.92501302 -32.03850902 32.68231141 -35 35 C-35.66 34.67 -36.32 34.34 -37 34 C-36.443125 33.39414063 -35.88625 32.78828125 -35.3125 32.1640625 C-31.31439459 27.77425082 -27.42568145 23.35224841 -23.75 18.6875 C-21.01157659 15.21595536 -18.16893037 12.08970711 -15 9 C-12.90545244 6.64515915 -10.83253475 4.27313765 -8.76953125 1.890625 C-5.77188182 -1.31216158 -4.1007917 -1.30231937 0 0 Z " fill="#2CB3A4" transform="translate(313,125)"/>
<path d="M0 0 C0.99 0.33 1.98 0.66 3 1 C3 1.66 3 2.32 3 3 C3.9590625 3.1546875 3.9590625 3.1546875 4.9375 3.3125 C5.618125 3.539375 6.29875 3.76625 7 4 C7.33 4.99 7.66 5.98 8 7 C8.66 7 9.32 7 10 7 C12.20944155 9.4165767 13.80556247 11.50175382 15 14.5625 C16.17015101 17.41474309 17.72765091 18.95488582 20 21 C19.34 21.33 18.68 21.66 18 22 C15.375 21.0625 15.375 21.0625 13 20 C13 21.32 13 22.64 13 24 C13.66 24 14.32 24 15 24 C15 24.66 15 25.32 15 26 C13.68 25.67 12.36 25.34 11 25 C10.87625 23.576875 10.87625 23.576875 10.75 22.125 C10.34925077 18.89538209 10.34925077 18.89538209 7.9375 17.625 C7.298125 17.41875 6.65875 17.2125 6 17 C6 16.01 6 15.02 6 14 C4.68 14 3.36 14 2 14 C1.67 13.01 1.34 12.02 1 11 C0.34 10.34 -0.32 9.68 -1 9 C-0.01 8.01 0.98 7.02 2 6 C1.34 4.02 0.68 2.04 0 0 Z " fill="#12F6DF" transform="translate(327,145)"/>
<path d="M0 0 C1.32 0.33 2.64 0.66 4 1 C4.75 4.25 4.75 4.25 5 8 C3.1875 10.4375 3.1875 10.4375 1 12 C0.34 12 -0.32 12 -1 12 C-1 12.66 -1 13.32 -1 14 C-1.99 14.33 -2.98 14.66 -4 15 C-4.474375 15.99 -4.94875 16.98 -5.4375 18 C-5.953125 18.99 -6.46875 19.98 -7 21 C-8.32594105 21.36162029 -9.65938457 21.69728039 -11 22 C-11.28101563 22.74636719 -11.56203125 23.49273437 -11.8515625 24.26171875 C-13.19100327 27.45541937 -14.72583385 28.97199485 -17.3125 31.25 C-18.07175781 31.93578125 -18.83101563 32.6215625 -19.61328125 33.328125 C-22.15031803 35.10529642 -23.95289911 35.63326927 -27 36 C-25.48031735 32.13171688 -23.20197271 30.56157817 -20 28 C-18.38287687 26.25114493 -16.85165425 24.43955666 -15.30859375 22.625 C-13.40078206 20.45571158 -11.45799968 18.34740666 -9.47265625 16.25 C-8.84157959 15.58266846 -8.21050293 14.91533691 -7.56030273 14.2277832 C-6.28096438 12.87904716 -4.99797745 11.5337616 -3.71118164 10.19213867 C-3.11813232 9.5654126 -2.52508301 8.93868652 -1.9140625 8.29296875 C-1.3773291 7.7311792 -0.8405957 7.16938965 -0.28759766 6.59057617 C1.2237589 4.91392214 1.2237589 4.91392214 2 2 C1.34 2 0.68 2 0 2 C0 1.34 0 0.68 0 0 Z " fill="#18F5D8" transform="translate(315,144)"/>
<path d="M0 0 C3.35337589 0.99694959 4.72713571 1.58565053 6.6875 4.5625 C7.120625 5.366875 7.55375 6.17125 8 7 C8.66 7.33 9.32 7.66 10 8 C10 18.23 10 28.46 10 39 C6.62229545 39.84442614 4.43933614 40.10039697 1.04785156 40.02172852 C0.06713684 40.00163223 -0.91357788 39.98153595 -1.92401123 39.96083069 C-3.5007663 39.92027809 -3.5007663 39.92027809 -5.109375 39.87890625 C-6.19132141 39.85529526 -7.27326782 39.83168427 -8.38800049 39.80735779 C-11.84213683 39.73081291 -15.2960438 39.64674869 -18.75 39.5625 C-21.09243671 39.50927016 -23.4348846 39.45652982 -25.77734375 39.40429688 C-31.51841658 39.27612976 -37.2591179 39.13779813 -43 39 C-43 31.74 -43 24.48 -43 17 C-42.67 17 -42.34 17 -42 17 C-42 23.93 -42 30.86 -42 38 C-25.5 38 -9 38 8 38 C7.896875 33.4625 7.79375 28.925 7.6875 24.25 C7.66260498 22.82461914 7.63770996 21.39923828 7.61206055 19.93066406 C7.57894775 18.80370117 7.54583496 17.67673828 7.51171875 16.515625 C7.48553467 15.36352539 7.45935059 14.21142578 7.43237305 13.02441406 C6.96349213 9.74463041 6.11132609 8.47052891 4 6 C4 5.34 4 4.68 4 4 C3.01 3.67 2.02 3.34 1 3 C0.505 1.515 0.505 1.515 0 0 Z " fill="#22998C" transform="translate(338,170)"/>
<path d="M0 0 C1.32 0 2.64 0 4 0 C5.8125 2.3125 5.8125 2.3125 7 5 C6.67 5.99 6.34 6.98 6 8 C3.525 6.02 3.525 6.02 1 4 C-0.91877545 6.06057175 -2.83505798 8.12337063 -4.75 10.1875 C-5.28882813 10.76564453 -5.82765625 11.34378906 -6.3828125 11.93945312 C-8.70336914 14.44395633 -10.95174829 16.93932257 -13.078125 19.61328125 C-15.22042853 22.27374357 -17.57246625 24.59821282 -20 27 C-22.65058473 29.90544864 -25.27107599 32.83610137 -27.890625 35.76953125 C-28.58671875 36.50558594 -29.2828125 37.24164063 -30 38 C-30.33 38 -30.66 38 -31 38 C-31 36.35 -31 34.7 -31 33 C-30.34 33 -29.68 33 -29 33 C-29 32.34 -29 31.68 -29 31 C-27.68 31 -26.36 31 -25 31 C-25 29.02 -25 27.04 -25 25 C-24.01 24.67 -23.02 24.34 -22 24 C-21.67 23.34 -21.34 22.68 -21 22 C-20.01 22 -19.02 22 -18 22 C-18 21.01 -18 20.02 -18 19 C-17.01 19 -16.02 19 -15 19 C-15 17.68 -15 16.36 -15 15 C-14.34 15 -13.68 15 -13 15 C-12.67 13.35 -12.34 11.7 -12 10 C-10.68 10 -9.36 10 -8 10 C-8 9.34 -8 8.68 -8 8 C-6.68 8 -5.36 8 -4 8 C-3.71125 7.236875 -3.4225 6.47375 -3.125 5.6875 C-2 3 -2 3 0 0 Z " fill="#2BCEB6" transform="translate(308,136)"/>
<path d="M0 0 C0.33 0 0.66 0 1 0 C1 1.65 1 3.3 1 5 C2.65 4.01 4.3 3.02 6 2 C6.36666667 7.5 6.36666667 7.5 4.625 9.875 C3 11 3 11 1 11 C1 23.21 1 35.42 1 48 C0.67 48 0.34 48 0 48 C-0.33 34.8 -0.66 21.6 -1 8 C-2.32 8.33 -3.64 8.66 -5 9 C-5 21.54 -5 34.08 -5 47 C-5.66 47 -6.32 47 -7 47 C-7.07420027 41.51907306 -7.1286258 36.03843901 -7.16479492 30.55712891 C-7.17987414 28.69281928 -7.20034061 26.82854508 -7.22631836 24.96435547 C-7.26273996 22.28343967 -7.2797349 19.6029932 -7.29296875 16.921875 C-7.30845261 16.08944275 -7.32393646 15.2570105 -7.33988953 14.39935303 C-7.34092061 10.8477677 -7.32899105 8.60390928 -5.60668945 5.44238281 C-4 4 -4 4 -2 4 C-1.34 2.68 -0.68 1.36 0 0 Z " fill="#14F4DD" transform="translate(271,168)"/>
<path d="M0 0 C2.9375 0.75 2.9375 0.75 6 2 C6.875 4.125 6.875 4.125 7 6 C8.32 6 9.64 6 11 6 C11.28875 6.639375 11.5775 7.27875 11.875 7.9375 C12.82823451 10.15206079 12.82823451 10.15206079 15 11 C15.625 14.0625 15.625 14.0625 16 17 C14.2925002 15.71937515 12.62626404 14.38232443 11 13 C11 12.34 11 11.68 11 11 C10.01 10.67 9.02 10.34 8 10 C5 6.55555556 5 6.55555556 5 4 C1.31930113 5.53643852 -0.98775204 7.78150945 -3.75 10.625 C-4.54921875 11.44226563 -5.3484375 12.25953125 -6.171875 13.1015625 C-6.77515625 13.72804687 -7.3784375 14.35453125 -8 15 C-9.125 11.25 -9.125 11.25 -8 9 C-6.68 9 -5.36 9 -4 9 C-4 7.35 -4 5.7 -4 4 C-2.68 3.67 -1.36 3.34 0 3 C0 2.01 0 1.02 0 0 Z " fill="#29D5C0" transform="translate(322,153)"/>
<path d="M0 0 C0.33 0 0.66 0 1 0 C1.02505615 0.63389648 1.0501123 1.26779297 1.07592773 1.92089844 C1.73135583 18.47994218 1.73135583 18.47994218 3 35 C9.27 35.33 15.54 35.66 22 36 C22 35.34 22 34.68 22 34 C22.66 34 23.32 34 24 34 C23.67 34.99 23.34 35.98 23 37 C19.270097 38.61722611 14.94046055 38.18389698 10.9375 38.1875 C10.21755859 38.19974609 9.49761719 38.21199219 8.75585938 38.22460938 C4.9573753 38.23519011 3.23633482 38.15755655 0 36 C-0.2667616 33.23371085 -0.34804189 30.69380369 -0.29296875 27.9296875 C-0.28872391 27.13345978 -0.28447906 26.33723206 -0.28010559 25.51687622 C-0.26328834 22.96924271 -0.22563179 20.42239511 -0.1875 17.875 C-0.17245705 16.14975099 -0.15876796 14.42448961 -0.14648438 12.69921875 C-0.11337501 8.46584218 -0.06157285 4.23305441 0 0 Z " fill="#9C9C9C" transform="translate(228,241)"/>
<path d="M0 0 C0.99 0.495 0.99 0.495 2 1 C2 1.66 2 2.32 2 3 C2.99 3.33 3.98 3.66 5 4 C6.58520814 5.73496934 8.0982273 7.53681912 9.5625 9.375 C10.74005859 10.84066406 10.74005859 10.84066406 11.94140625 12.3359375 C15.73505716 17.24536809 16.35039181 20.43941799 16.484375 26.5 C16.5084845 27.33208984 16.53259399 28.16417969 16.55743408 29.02148438 C16.60570433 30.77982389 16.64910173 32.53830294 16.68798828 34.296875 C16.74977542 36.99021046 16.83283811 39.68231293 16.91796875 42.375 C16.96222213 44.08330054 17.00523275 45.79163382 17.046875 47.5 C17.07279724 48.30630859 17.09871948 49.11261719 17.12542725 49.94335938 C17.19681615 53.85140376 17.22172198 55.66741704 15 59 C14.98018066 57.83952148 14.96036133 56.67904297 14.93994141 55.48339844 C14.86382088 51.17442266 14.77511334 46.86578172 14.68261719 42.55712891 C14.6443541 40.69293838 14.60949654 38.8286747 14.578125 36.96435547 C14.53241644 34.28326284 14.47443178 31.60267267 14.4140625 28.921875 C14.40251129 28.08944275 14.39096008 27.2570105 14.37905884 26.39935303 C14.32147174 20.88974919 14.32147174 20.88974919 12 16 C11.34 15.67 10.68 15.34 10 15 C10 14.34 10 13.68 10 13 C9.01 13 8.02 13 7 13 C5.92474806 10.34771188 4.90543849 7.71631546 4 5 C3.01 4.67 2.02 4.34 1 4 C0.3125 1.9375 0.3125 1.9375 0 0 Z " fill="#31AB9B" transform="translate(341,158)"/>
<path d="M0 0 C4.24822374 0.47202486 6.19989709 2.96655518 9 6 C8.01 6.66 7.02 7.32 6 8 C4.0549 10.91765 3.54723683 12.62537285 3 16 C2.34 16 1.68 16 1 16 C1 13.36 1 10.72 1 8 C-2.63 7.67 -6.26 7.34 -10 7 C-10 10.3 -10 13.6 -10 17 C-7.69 17 -5.38 17 -3 17 C-3 17.33 -3 17.66 -3 18 C-5.64 18 -8.28 18 -11 18 C-11 14.04 -11 10.08 -11 6 C-8.265625 5.8046875 -5.53125 5.609375 -2.796875 5.4140625 C-0.10366811 5.01534751 1.66963279 4.36492937 4 3 C3.01 2.67 2.02 2.34 1 2 C0.67 1.34 0.34 0.68 0 0 Z " fill="#B8B8B8" transform="translate(198,240)"/>
<path d="M0 0 C0.33 0.66 0.66 1.32 1 2 C0.25 4.0625 0.25 4.0625 -1 6 C-1.99 6.33 -2.98 6.66 -4 7 C-6.22325647 9.56011351 -8.11879409 12.17819113 -10 15 C-10.66 15 -11.32 15 -12 15 C-12.20625 15.556875 -12.4125 16.11375 -12.625 16.6875 C-14.55000774 19.92501302 -17.03850902 21.68231141 -20 24 C-20.66 23.67 -21.32 23.34 -22 23 C-21.43152344 22.3709375 -20.86304688 21.741875 -20.27734375 21.09375 C-19.11912109 19.80984375 -19.11912109 19.80984375 -17.9375 18.5 C-17.11765625 17.5925 -16.2978125 16.685 -15.453125 15.75 C-12.77541502 12.74823595 -10.17427124 9.68899843 -7.60546875 6.59375 C-6 5 -6 5 -3.92578125 3.96875 C-1.66246706 3.02889616 -1.66246706 3.02889616 0 0 Z " fill="#28BDAB" transform="translate(298,136)"/>
<path d="M0 0 C1.32 0.33 2.64 0.66 4 1 C4.75 4.25 4.75 4.25 5 8 C3.1875 10.4375 3.1875 10.4375 1 12 C0.34 12 -0.32 12 -1 12 C-1 12.66 -1 13.32 -1 14 C-6.625 17 -6.625 17 -10 17 C-9.21753906 16.16855469 -8.43507813 15.33710938 -7.62890625 14.48046875 C-6.60652057 13.38304559 -5.58439887 12.28537648 -4.5625 11.1875 C-4.04623047 10.64029297 -3.52996094 10.09308594 -2.99804688 9.52929688 C-0.68923395 7.03940058 0.91358514 5.25924458 2 2 C1.34 2 0.68 2 0 2 C0 1.34 0 0.68 0 0 Z " fill="#24CBB8" transform="translate(315,144)"/>
<path d="M0 0 C0.33 0 0.66 0 1 0 C1.0741205 5.35682133 1.12858776 10.71334462 1.16479492 16.07055664 C1.1798876 17.89320067 1.20036395 19.71580836 1.22631836 21.53833008 C1.26268103 24.157155 1.27972124 26.77550007 1.29296875 29.39453125 C1.30845261 30.21025101 1.32393646 31.02597076 1.33988953 31.8664093 C1.34158861 37.5693869 1.34158861 37.5693869 -0.36112976 39.71586609 C-2 41 -2 41 -4.5625 41.375 C-5.7690625 41.189375 -5.7690625 41.189375 -7 41 C-7.66 40.01 -8.32 39.02 -9 38 C-6.36 37.67 -3.72 37.34 -1 37 C-0.67 24.79 -0.34 12.58 0 0 Z " fill="#30968B" transform="translate(272,179)"/>
<path d="M0 0 C1.32 0 2.64 0 4 0 C5.8125 2.3125 5.8125 2.3125 7 5 C6.67 5.99 6.34 6.98 6 8 C4.35 6.68 2.7 5.36 1 4 C-1.97 7.3 -4.94 10.6 -8 14 C-9 11 -9 11 -8 8 C-6.68 8 -5.36 8 -4 8 C-3.566875 6.8553125 -3.566875 6.8553125 -3.125 5.6875 C-2 3 -2 3 0 0 Z " fill="#2BA799" transform="translate(308,136)"/>
<path d="M0 0 C0 3 0 3 -0.49389648 5.27416992 C-1.08171878 8.44013034 -1.11235916 11.39334313 -1.09765625 14.61328125 C-1.09443359 15.86044922 -1.09121094 17.10761719 -1.08789062 18.39257812 C-1.07951172 19.68615234 -1.07113281 20.97972656 -1.0625 22.3125 C-1.05798828 23.62541016 -1.05347656 24.93832031 -1.04882812 26.29101562 C-1.03705949 29.5273901 -1.0206176 32.76367178 -1 36 C0.65 36.33 2.3 36.66 4 37 C4 37.33 4 37.66 4 38 C2.00045254 38.04254356 -0.00041636 38.04080783 -2 38 C-3.9643271 36.0356729 -3.18747535 32.25526582 -3.203125 29.5703125 C-3.20882507 28.82417694 -3.21452515 28.07804138 -3.22039795 27.30929565 C-3.22986151 25.72720768 -3.2363873 24.14509988 -3.24023438 22.56298828 C-3.2499323 20.14190218 -3.28093823 17.7216676 -3.3125 15.30078125 C-3.3190306 13.76563006 -3.32428085 12.23047277 -3.328125 10.6953125 C-3.3404718 9.97022491 -3.3528186 9.24513733 -3.36553955 8.49807739 C-3.34315708 3.44707394 -3.34315708 3.44707394 -1.47949219 1.01904297 C-0.99125977 0.68275879 -0.50302734 0.34647461 0 0 Z " fill="#1AF5DA" transform="translate(290,179)"/>
<path d="M0 0 C0 0.99 0 1.98 0 3 C-1.98 3.99 -1.98 3.99 -4 5 C-4 17.21 -4 29.42 -4 42 C-4.33 42 -4.66 42 -5 42 C-5.12352165 36.50081611 -5.2143009 31.00243782 -5.2746582 25.50219727 C-5.29981578 23.63096046 -5.33394593 21.75982205 -5.37719727 19.88891602 C-5.43779677 17.20043697 -5.46619603 14.51325564 -5.48828125 11.82421875 C-5.51408768 10.98662521 -5.5398941 10.14903168 -5.56648254 9.28605652 C-5.56762695 6.9206543 -5.56762695 6.9206543 -5 3 C-2.46948242 0.94848633 -2.46948242 0.94848633 0 0 Z " fill="#33E5D2" transform="translate(276,174)"/>
<path d="M0 0 C0.99 0.33 1.98 0.66 3 1 C-1.32893185 6.18419194 -5.76564995 10.72706118 -11 15 C-10.67 13.02 -10.34 11.04 -10 9 C-9.01 9.33 -8.02 9.66 -7 10 C-6.67 8.35 -6.34 6.7 -6 5 C-5.01 5 -4.02 5 -3 5 C-2.87625 4.360625 -2.7525 3.72125 -2.625 3.0625 C-2.41875 2.381875 -2.2125 1.70125 -2 1 C-1.34 0.67 -0.68 0.34 0 0 Z " fill="#27C6B3" transform="translate(310,168)"/>
<path d="M0 0 C2.475 0.495 2.475 0.495 5 1 C5 1.99 5 2.98 5 4 C6.32 4 7.64 4 9 4 C9.28875 4.639375 9.5775 5.27875 9.875 5.9375 C10.82823451 8.15206079 10.82823451 8.15206079 13 9 C13.625 12.0625 13.625 12.0625 14 15 C12.2925002 13.71937515 10.62626404 12.38232443 9 11 C9 10.34 9 9.68 9 9 C8.01 8.67 7.02 8.34 6 8 C3 4.55555556 3 4.55555556 3 2 C2.01 1.67 1.02 1.34 0 1 C0 0.67 0 0.34 0 0 Z " fill="#2BBEAB" transform="translate(324,155)"/>
<path d="M0 0 C1.98 0.99 1.98 0.99 4 2 C4 2.66 4 3.32 4 4 C4.66 4 5.32 4 6 4 C10 8.35294118 10 8.35294118 10 12 C7 12 7 12 5.3125 10.6875 C4 9 4 9 4 6 C3.34 6 2.68 6 2 6 C2 5.34 2 4.68 2 4 C1.34 4 0.68 4 0 4 C0 2.68 0 1.36 0 0 Z " fill="#27D5BF" transform="translate(331,148)"/>
<path d="M0 0 C2.31 0.66 4.62 1.32 7 2 C7 4.31 7 6.62 7 9 C4.525 8.01 4.525 8.01 2 7 C2 6.01 2 5.02 2 4 C1.34 4 0.68 4 0 4 C0 2.68 0 1.36 0 0 Z " fill="#0BF9E5" transform="translate(340,165)"/>
<path d="M0 0 C0 3.53105585 -0.50159211 3.88979005 -2.8125 6.375 C-4.77717896 8.5416553 -6.15114769 10.27811175 -7.5625 12.875 C-9 15 -9 15 -11.6875 15.8125 C-12.450625 15.874375 -13.21375 15.93625 -14 16 C-12.48031735 12.13171688 -10.20197271 10.56157817 -7 8 C-4.58874311 5.39864401 -2.2847391 2.71271616 0 0 Z " fill="#28A38F" transform="translate(302,164)"/>
<path d="M0 0 C0.99 0 1.98 0 3 0 C2.34 1.32 1.68 2.64 1 4 C0.34 4 -0.32 4 -1 4 C-1 11.26 -1 18.52 -1 26 C-1.33 26 -1.66 26 -2 26 C-2.05799124 22.22923111 -2.09359306 18.45857666 -2.125 14.6875 C-2.14175781 13.61564453 -2.15851563 12.54378906 -2.17578125 11.43945312 C-2.18222656 10.41142578 -2.18867188 9.38339844 -2.1953125 8.32421875 C-2.20578613 7.37635498 -2.21625977 6.42849121 -2.22705078 5.4519043 C-2 3 -2 3 0 0 Z " fill="#32C7B3" transform="translate(296,183)"/>
<path d="M0 0 C1.32 0.33 2.64 0.66 4 1 C2.69117841 4.92646477 1.1255472 7.27774921 -2 10 C-2.33 10 -2.66 10 -3 10 C-3 8.35 -3 6.7 -3 5 C-2.34 5 -1.68 5 -1 5 C-0.67 3.35 -0.34 1.7 0 0 Z " fill="#23D6C2" transform="translate(296,146)"/>
<path d="M0 0 C0.99 0.33 1.98 0.66 3 1 C4.50118342 4.97813608 5.50581032 7.93431213 4 12 C4 12.66 4 13.32 4 14 C3.34 14 2.68 14 2 14 C1.67 13.01 1.34 12.02 1 11 C0.34 10.34 -0.32 9.68 -1 9 C-0.01 8.01 0.98 7.02 2 6 C1.34 4.02 0.68 2.04 0 0 Z " fill="#16F4DD" transform="translate(327,145)"/>
<path d="M0 0 C0.33 0.66 0.66 1.32 1 2 C0.67 2.99 0.34 3.98 0 5 C-0.66 5 -1.32 5 -2 5 C-2.226875 5.61875 -2.45375 6.2375 -2.6875 6.875 C-4.37929835 9.61410209 -5.99244161 10.05024472 -9 11 C-8.34 9.68 -7.68 8.36 -7 7 C-6.34 7 -5.68 7 -5 7 C-4.731875 6.401875 -4.46375 5.80375 -4.1875 5.1875 C-3.01506533 3.02775192 -1.80630718 1.64209744 0 0 Z " fill="#2CBEAD" transform="translate(275,160)"/>
<path d="M0 0 C1 2 1 2 0.4375 4 C-1.57302108 6.79724672 -3.74418077 7.15065585 -7 8 C-5.98823563 4.59679258 -5.35156418 3.24274669 -2.375 1.1875 C-1.59125 0.795625 -0.8075 0.40375 0 0 Z " fill="#21E5CA" transform="translate(309,159)"/>
<path d="M0 0 C-1.25 1.5625 -1.25 1.5625 -3 3 C-5.1875 2.6875 -5.1875 2.6875 -7 2 C-7.33 2.99 -7.66 3.98 -8 5 C-8.66 5 -9.32 5 -10 5 C-8.94958421 2.13522966 -8.29875437 1.16086774 -5.5625 -0.3125 C-3 -1 -3 -1 0 0 Z " fill="#FAF9FA" transform="translate(481,242)"/>
<path d="M0 0 C1.04285156 -0.00515625 2.08570313 -0.0103125 3.16015625 -0.015625 C5.9375 0.25 5.9375 0.25 8.9375 2.25 C8.16664063 2.23839844 7.39578125 2.22679687 6.6015625 2.21484375 C5.59867187 2.20582031 4.59578125 2.19679687 3.5625 2.1875 C2.06589844 2.17009766 2.06589844 2.17009766 0.5390625 2.15234375 C-2.04682453 2.06993398 -2.04682453 2.06993398 -4.0625 3.25 C-6.07050456 2.96887936 -8.07264051 2.63932033 -10.0625 2.25 C-6.65145449 0.17871453 -3.95714724 -0.01961411 0 0 Z " fill="#A1A0A1" transform="translate(355.0625,239.75)"/>
<path d="M0 0 C0.33 0.66 0.66 1.32 1 2 C0.25 4.0625 0.25 4.0625 -1 6 C-1.99 6.33 -2.98 6.66 -4 7 C-5.66710346 8.49985609 -5.66710346 8.49985609 -7 10 C-7.33 9.01 -7.66 8.02 -8 7 C-7.05125 6.401875 -6.1025 5.80375 -5.125 5.1875 C-1.86035803 3.18437474 -1.86035803 3.18437474 0 0 Z " fill="#2CE0C8" transform="translate(298,136)"/>
<path d="M0 0 C2.875 -0.125 2.875 -0.125 6 0 C6.66 0.66 7.32 1.32 8 2 C7.34 2 6.68 2 6 2 C6 2.99 6 3.98 6 5 C5.01 5 4.02 5 3 5 C1.3125 2.5 1.3125 2.5 0 0 Z " fill="#14F5DE" transform="translate(293,178)"/>
<path d="M0 0 C1.32 0 2.64 0 4 0 C2.60667426 3.36720387 1.0210714 4.9859524 -2 7 C-2 5.35 -2 3.7 -2 2 C-1.34 2 -0.68 2 0 2 C0 1.34 0 0.68 0 0 Z " fill="#2EC8B7" transform="translate(279,167)"/>
<path d="M0 0 C0.66 0 1.32 0 2 0 C2 3 2 3 0.46875 4.60546875 C-0.1809375 5.12753906 -0.830625 5.64960938 -1.5 6.1875 C-2.1496875 6.71730469 -2.799375 7.24710938 -3.46875 7.79296875 C-3.9740625 8.19128906 -4.479375 8.58960938 -5 9 C-5 5.47967572 -4.29648649 4.5614657 -2 2 C-1.34 2 -0.68 2 0 2 C0 1.34 0 0.68 0 0 Z " fill="#BEBEBE" transform="translate(343,242)"/>
<path d="M0 0 C0.33 0.66 0.66 1.32 1 2 C0.34 2 -0.32 2 -1 2 C-2.88391785 5.26545761 -3.49287967 8.28111761 -4 12 C-4.33 12 -4.66 12 -5 12 C-5.25 4.375 -5.25 4.375 -3 1 C-2.01 0.67 -1.02 0.34 0 0 Z " fill="#32DDCB" transform="translate(268,170)"/>
<path d="M0 0 C1.32 0 2.64 0 4 0 C5.8125 2.3125 5.8125 2.3125 7 5 C6.67 5.99 6.34 6.98 6 8 C4.5 6.6875 4.5 6.6875 3 5 C3 4.01 3 3.02 3 2 C2.01 2 1.02 2 0 2 C0 1.34 0 0.68 0 0 Z " fill="#2ED3C1" transform="translate(308,136)"/>
<path d="M0 0 C0 0.99 0 1.98 0 3 C-1.98 3.99 -1.98 3.99 -4 5 C-4 7.64 -4 10.28 -4 13 C-4.33 13 -4.66 13 -5 13 C-5.28526928 9.62114388 -5.46087248 6.36708009 -5 3 C-2.5 0.875 -2.5 0.875 0 0 Z " fill="#2ACAB8" transform="translate(276,174)"/>
<path d="M0 0 C3.31832766 0.98652984 4.76548627 1.68731503 6.875 4.5 C7.24625 5.325 7.6175 6.15 8 7 C7.67 7.66 7.34 8.32 7 9 C5.5 7.625 5.5 7.625 4 6 C4 5.34 4 4.68 4 4 C3.01 3.67 2.02 3.34 1 3 C0.67 2.01 0.34 1.02 0 0 Z " fill="#32AE9C" transform="translate(338,170)"/>
<path d="M0 0 C2.52480693 2.52480693 2.55738633 4.13823034 3.125 7.625 C3.29257813 8.62789062 3.46015625 9.63078125 3.6328125 10.6640625 C3.75398437 11.43492187 3.87515625 12.20578125 4 13 C1.78631706 10.78631706 0.13447079 9.06983375 -0.265625 5.88671875 C-0.25166986 3.92253213 -0.13286356 1.9597375 0 0 Z " fill="#AEAEAE" transform="translate(129,241)"/>
<path d="M0 0 C2.64 0 5.28 0 8 0 C7.67 0.99 7.34 1.98 7 3 C4.625 3.1875 4.625 3.1875 2 3 C1.34 2.01 0.68 1.02 0 0 Z " fill="#37ACA2" transform="translate(263,217)"/>
<path d="M0 0 C0.33 0.99 0.66 1.98 1 3 C-1.375 4.5625 -1.375 4.5625 -4 6 C-4.66 5.67 -5.32 5.34 -6 5 C-2.25 1.125 -2.25 1.125 0 0 Z " fill="#28C2AD" transform="translate(294,174)"/>
<path d="M0 0 C1.32 0 2.64 0 4 0 C3.43628586 3.26954202 2.50037734 4.82575883 0 7 C0 4.69 0 2.38 0 0 Z " fill="#29D6C3" transform="translate(283,161)"/>
<path d="M0 0 C2.64 0.33 5.28 0.66 8 1 C7.34 2.65 6.68 4.3 6 6 C5.566875 5.38125 5.13375 4.7625 4.6875 4.125 C3.00259517 1.7802755 3.00259517 1.7802755 0 0 Z " fill="#B2B2B2" transform="translate(325,240)"/>
<path d="M0 0 C1.98 0.66 3.96 1.32 6 2 C6 2.99 6 3.98 6 5 C3 5 3 5 1.3125 3.625 C0 2 0 2 0 0 Z " fill="#22EAD2" transform="translate(335,155)"/>
</svg>
